<?xml version="1.0" encoding="UTF-8"?>
<svg width="77px" height="79px" viewBox="0 0 77 79" version="1.1" xmlns="http://www.w3.org/2000/svg" xmlns:xlink="http://www.w3.org/1999/xlink">
    <title>Group 6</title>
    <defs>
        <polygon id="path-1" points="0.0003 0.0566 76.572 0.0566 76.572 78.5 0.0003 78.5"></polygon>
    </defs>
    <g id="Page-1" stroke="none" stroke-width="1" fill="none" fill-rule="evenodd">
        <g id="Apple-TV-Copy" transform="translate(-1261.000000, -1960.000000)">
            <g id="Group-6" transform="translate(1261.000000, 1960.000000)">
                <g id="Group-3">
                    <mask id="mask-2" fill="white">
                        <use xlink:href="#path-1"></use>
                    </mask>
                    <g id="Clip-2"></g>
                    <path d="M68.4258,56.7896 C67.4418,56.4266 66.3828,56.2166 65.2743,56.2166 C60.2478,56.2166 56.1603,60.3056 56.1603,65.3291 C56.1603,66.6821 56.4633,67.9616 56.9943,69.1181 C51.9123,72.3116 46.1028,74.0006 40.0023,74.0006 C33.9648,74.0006 28.1403,72.3101 23.0598,69.1376 C23.9553,67.4396 24.4683,65.5076 24.4683,63.4571 C24.4683,56.7116 18.9798,51.2246 12.2343,51.2246 C11.2683,51.2246 10.3323,51.3491 9.4308,51.5621 C8.4528,48.4571 7.9323,45.2336 7.9323,41.9306 C7.9323,27.3611 17.8773,14.6246 31.8078,10.9466 C32.9958,13.7861 35.8008,15.7886 39.0663,15.7886 C42.4818,15.7886 45.3663,13.5866 46.4508,10.5386 C61.1913,13.5551 72.0723,26.6786 72.0723,41.9306 C72.0723,47.1311 70.8153,52.2251 68.4258,56.7896 M65.2743,69.9446 C62.7303,69.9446 60.6603,67.8746 60.6603,65.3291 C60.6603,62.7866 62.7303,60.7166 65.2743,60.7166 C67.8183,60.7166 69.8883,62.7866 69.8883,65.3291 C69.8883,67.8746 67.8183,69.9446 65.2743,69.9446 M12.2343,71.1926 C7.9698,71.1926 4.5003,67.7216 4.5003,63.4571 C4.5003,59.1941 7.9698,55.7246 12.2343,55.7246 C16.4988,55.7246 19.9683,59.1941 19.9683,63.4571 C19.9683,67.7216 16.4988,71.1926 12.2343,71.1926 M39.0663,4.5566 C40.9218,4.5566 42.4323,6.0671 42.4323,7.9226 C42.4323,9.7781 40.9218,11.2886 39.0663,11.2886 C37.2093,11.2886 35.7003,9.7781 35.7003,7.9226 C35.7003,6.0671 37.2093,4.5566 39.0663,4.5566 M76.5723,41.9306 C76.5723,24.3056 63.8253,9.1796 46.6683,6.0086 C45.8073,2.5976 42.7383,0.0566 39.0663,0.0566 C35.2413,0.0566 32.0523,2.8031 31.3518,6.4256 C15.1038,10.3751 3.4323,25.0781 3.4323,41.9306 C3.4323,45.8636 4.0863,49.7006 5.3028,53.3876 C2.1033,55.5971 0.0003,59.2841 0.0003,63.4571 C0.0003,70.2026 5.4888,75.6926 12.2343,75.6926 C15.2988,75.6926 18.0948,74.5526 20.2428,72.6836 C26.1408,76.4786 32.9478,78.5006 40.0023,78.5006 C47.1468,78.5006 53.9538,76.4861 59.8623,72.6446 C61.3773,73.7696 63.2463,74.4446 65.2743,74.4446 C70.2993,74.4446 74.3883,70.3556 74.3883,65.3291 C74.3883,63.0446 73.5363,60.9581 72.1413,59.3576 C75.0348,54.0266 76.5723,48.0446 76.5723,41.9306" id="Fill-1" fill="#FFFFFF" mask="url(#mask-2)"></path>
                </g>
                <path d="M40,49.5863422 C35.8170672,49.5863422 32.4139284,46.183412 32.4139284,42.0007356 C32.4139284,37.8180592 35.8170672,34.4136578 40,34.4136578 C44.1829328,34.4136578 47.5860716,37.8180592 47.5860716,42.0007356 C47.5860716,46.183412 44.1829328,49.5863422 40,49.5863422 M40,30 C33.3835213,30 28,35.3846625 28,42.0007356 C28,48.6168087 33.3835213,54 40,54 C46.61795,54 52,48.6168087 52,42.0007356 C52,35.3846625 46.61795,30 40,30" id="Fill-4" fill="#FFFFFF"></path>
            </g>
        </g>
    </g>
</svg>