<?xml version="1.0" encoding="utf-8"?>
<!-- Generator: Adobe Illustrator 25.0.0, SVG Export Plug-In . SVG Version: 6.00 Build 0)  -->
<svg version="1.1" id="Layer_1" xmlns="http://www.w3.org/2000/svg" xmlns:xlink="http://www.w3.org/1999/xlink" x="0px" y="0px"
	 viewBox="0 0 86 69" style="enable-background:new 0 0 86 69;" xml:space="preserve">
<style type="text/css">
	.st0{filter:url(#Adobe_OpacityMaskFilter);}
	.st1{fill-rule:evenodd;clip-rule:evenodd;fill:#FFFFFF;}
	.st2{mask:url(#mask-2_1_);fill-rule:evenodd;clip-rule:evenodd;}
</style>
<g id="Page-1">
	<g id="Apple-TV-Copy" transform="translate(-343.000000, -1961.000000)">
		<g id="Group-3" transform="translate(343.000000, 1961.000000)">
			<g id="Clip-2">
			</g>
			<defs>
				<filter id="Adobe_OpacityMaskFilter" filterUnits="userSpaceOnUse" x="0" y="0" width="86" height="69">
					<feColorMatrix  type="matrix" values="1 0 0 0 0  0 1 0 0 0  0 0 1 0 0  0 0 0 1 0"/>
				</filter>
			</defs>
			<mask maskUnits="userSpaceOnUse" x="0" y="0" width="86" height="69" id="mask-2_1_">
				<g class="st0">
					<polygon id="path-1_1_" class="st1" points="0,0 86,0 86,69 0,69 					"/>
				</g>
			</mask>
			<path id="Fill-1" class="st2" d="M59.9,64.6h1.5c0.9-0.8,1.2-1.8,1-3.2c-0.6-3.7,1.1-6.6,2.6-9.1c0.3-0.5,0.6-1,0.8-1.4l0.4-0.7
				c1.3-2.3,2-3.6,1.2-5.4c-0.6-1.6-0.1-2.7,0.2-3.2c0.5-0.7,1.6-1.6,3.8-1.7c0.3,0,0.7,0,1,0.1c0.2,0,0.3,0,0.5,0
				c0.2-0.1,0.4-0.2,0.7-0.3c0.4-0.1,1-0.3,1.3-0.5c-0.1-0.9-0.7-1.8-1.4-2.4c-1.4-1.4-1.6-3.6-1.8-5.4L72,30.9
				c-0.1-1.1,0.3-2.1,0.7-2.9c0.1-0.2,0.2-0.4,0.3-0.6c0.2-0.7,0.8-1.2,1.5-1.4c0.7-0.2,1.5,0,2,0.5c0.7,0.6,1.1,0.7,1.2,0.7
				c0.2,0,0.6-0.3,1.2-1.2c0.7-1,1.6-1.8,2.4-2.6c0.1-0.1,0.2-0.2,0.3-0.3v-0.7l-0.2-2.3c-0.1-1.9-0.3-3.8-0.4-5.8l0-0.3
				c-0.1-1.4-0.1-1.4-0.5-1.6c-2.2-1.1-1.7-4.6-1.6-4.7c0.2-1.5,0.2-2.6-0.1-3.4h-1C77.2,4.7,77,5,76.9,5.8C76.7,6.9,76,8,74.8,9.3
				c-3.4,3.3-7,6.6-10.5,9.9L63,20.3c-1.9,1.8-3.9,3.6-6,5.2c-1.7,1.3-2.8,2.3-3,3.9c-0.1,1-0.9,1.7-1.9,1.9
				c-1.8,0.3-2.9,1.1-3.7,2.6c-0.5,0.9-1.6,1.6-2.6,1.7c-0.9,0-1.6,0.6-1.9,1.7c-0.7,2.4-2.2,3.6-4.6,3.6h0c-1.1,0-2.1-0.1-3.1-0.3
				c-0.4-0.1-0.9-0.1-1.3-0.2l-1.8-0.2c-1.8-0.2-3.6-0.4-5.4-0.5c-0.6,0-1.2,0-1.8,0c-0.7,0-1.4,0.1-2,0c-2.9-0.1-3.9,0.1-6.4,1.5
				c-1.3,0.7-3.1,0.8-4.9,0.3c-1.9-0.6-3.5-1.8-4.2-3.2c-0.3-0.7-0.8-1.3-1.2-2c-0.2-0.3-0.4-0.6-0.6-0.8c-0.3-0.5-0.8-0.8-1.3-0.8
				c-0.3,0-0.6,0-0.9,0.1v4.1c1,1.3,2.1,2.6,3.2,3.9c2.8,3.4,5.7,7,8.2,10.8c2.8,4.3,6.2,6.3,11.6,6.7c7.5,0.6,15,1.7,22.3,2.7
				c2.9,0.4,5.9,0.8,8.8,1.2c0.5,0.1,1,0.2,1.4,0.3C59.9,64.6,59.9,64.6,59.9,64.6L59.9,64.6z M62.2,69h-2.6c-0.2,0-0.4,0-0.6-0.1
				c-0.2,0-0.4-0.1-0.5-0.2c-0.2-0.1-0.4-0.1-0.6-0.2c-3-0.4-5.9-0.8-8.9-1.2c-7.2-1-14.7-2-22-2.7c-6.8-0.6-11.4-3.3-15-8.7
				c-2.3-3.6-5.2-7.1-7.9-10.4c-1.2-1.5-2.5-3-3.7-4.6C0.2,40.6,0,40.2,0,39.7v-6C0,33,0.3,32.4,0.7,32c1.4-1.3,3.3-1.9,5.1-1.6
				c1.8,0.2,3.4,1.3,4.4,2.8c0.2,0.3,0.3,0.5,0.5,0.8c0.5,0.8,1.1,1.6,1.5,2.5c0.1,0.2,0.5,0.6,1.4,0.9c0.8,0.3,1.4,0.2,1.5,0.1
				c3.2-1.9,5-2.3,8.8-2.1c0.6,0,1.1,0,1.7,0c0.7,0,1.5-0.1,2.3,0c1.9,0.1,3.7,0.3,5.6,0.5l1.8,0.2c0.5,0,1,0.1,1.5,0.2
				c0.9,0.1,1.7,0.2,2.5,0.2c0.1,0,0.2,0,0.2,0c0-0.1,0.1-0.2,0.1-0.4c0.8-2.7,2.7-4.5,5.2-4.9c1.2-2,2.9-3.3,5.1-4
				c0.8-2.4,2.6-3.9,4.4-5.3c2-1.4,3.7-3.1,5.6-4.8l1.3-1.2c3.5-3.2,7-6.5,10.4-9.8c0.7-0.7,0.8-1,0.8-1c0.3-2.4,1.7-4.1,4-5
				C76.8,0,77.1,0,77.3,0h2.6c0.7,0,1.3,0.3,1.7,0.8c2.1,2.5,2,5.3,1.6,7.7c0,0.2,0,0.4,0,0.6c2.1,1.4,2.2,3.6,2.2,4.9l0,0.3
				c0.1,1.9,0.2,3.8,0.4,5.7l0.2,2.4c0,0.1,0,0.1,0,0.2v1.7c0,0.6-0.2,1.1-0.6,1.5c-0.3,0.4-0.7,0.7-1.1,1c-0.7,0.6-1.3,1.2-1.8,1.9
				c-1.3,1.8-2.7,2.8-4.3,3c-0.6,0.1-1.1,0-1.7-0.1c0.1,0.8,0.2,2,0.5,2.3c2.7,2.7,2.8,5.2,2.5,6.9c-0.4,1.9-2.4,2.6-4.1,3.2
				c-0.2,0.1-0.5,0.2-0.7,0.3c-0.9,0.4-1.7,0.3-2.4,0.2c-0.1,0-0.1,0-0.2,0c0.8,3.3-0.7,5.9-1.9,8L69.8,53c-0.3,0.5-0.6,1-0.9,1.6
				c-1.3,2.1-2.4,4-2.1,6.1c0.5,3.3-0.7,6-3.4,7.9C63.1,68.9,62.7,69,62.2,69L62.2,69z"/>
		</g>
	</g>
</g>
</svg>
