<?xml version="1.0" encoding="UTF-8"?>
<svg width="70px" height="70px" viewBox="0 0 70 70" version="1.1" xmlns="http://www.w3.org/2000/svg" xmlns:xlink="http://www.w3.org/1999/xlink">
    <title>Group 6</title>
    <defs>
        <polygon id="path-1" points="0 0.342857143 69.6568571 0.342857143 69.6568571 70 0 70"></polygon>
    </defs>
    <g id="Page-1" stroke="none" stroke-width="1" fill="none" fill-rule="evenodd">
        <g id="Apple-TV-Copy" transform="translate(-793.000000, -1960.000000)">
            <g id="Group-6" transform="translate(793.000000, 1960.000000)">
                <g id="Group-3">
                    <mask id="mask-2" fill="white">
                        <use xlink:href="#path-1"></use>
                    </mask>
                    <g id="Clip-2"></g>
                    <path d="M51.6197143,60.6571429 C51.7782857,60.4842857 51.9468571,60.3057143 52.1411429,60.1114286 C55.344,56.9085714 54.8168571,53.4457143 54.0697143,50.4514286 C53.5682857,48.4357143 52.4997143,47.2957143 51.794,46.54 C51.6068571,46.3414286 51.3582857,46.0414286 51.3211429,46.0871429 C51.3211429,46.0857143 51.324,46.0157143 51.3811429,45.8571429 C51.7382857,44.8571429 52.1782857,44.3642857 52.6025714,43.8885714 C53.1325714,43.2928571 53.8582857,42.4771429 53.8582857,41.1628571 C53.8582857,39.8814286 53.2225714,38.85 52.5468571,37.76 C52.2454286,37.2714286 51.9082857,36.7242857 51.574,36.0828571 C51.9768571,35.5328571 53.3682857,34.7 53.8954286,34.5914286 C55.5111429,34.5914286 57.1768571,34.3771429 59.7682857,31.7842857 C60.5611429,30.9914286 62.9168571,30.5557143 64.9625714,30.4157143 C65.2068571,31.97 65.3711429,33.55 65.3711429,35.1714286 C65.3711429,45.8114286 59.894,55.1871429 51.6197143,60.6571429 M5.18257143,42.3842857 C7.214,43.0285714 8.99542857,44.9428571 10.7811429,46.8685714 C11.074,47.1842857 11.3654286,47.5128571 11.6582857,47.8428571 C13.434,49.8428571 15.444,52.1071429 18.5797143,52.8142857 C19.184,52.95 19.9011429,53.0785714 20.6382857,53.0785714 C21.6468571,53.0785714 22.6897143,52.8385714 23.5211429,52.0557143 C25.0654286,50.5971429 24.704,48.4142857 24.4125714,46.6585714 C24.3525714,46.2942857 24.2911429,45.9257143 24.2454286,45.5657143 L23.7254286,41.2985714 C23.6954286,41.0571429 23.6911429,40.8785714 23.6968571,40.7514286 C23.9168571,40.7657143 24.2925714,40.8257143 24.8697143,41.0228571 C25.8297143,41.3514286 26.8968571,40.96 27.4111429,40.08 C27.6925714,39.6014286 28.0554286,39.0814286 28.4354286,38.5357143 C30.1354286,36.0857143 32.4625714,32.7314286 30.7525714,29.3114286 C30.4511429,28.7085714 30.4297143,27.9942857 30.404,27.09 C30.3654286,25.7757143 30.3168571,24.14 29.3525714,22.3442857 C27.5097143,18.9085714 24.7654286,19.0542857 23.574,19.6114286 C23.3625714,19.7085714 23.1682857,19.8414286 22.9997143,20.0014286 C22.874,20.1214286 22.754,20.2271429 22.6382857,20.3228571 C22.8682857,19.59 23.3454286,18.7028571 23.7225714,18.0028571 C23.8997143,17.6728571 24.0682857,17.3571429 24.2154286,17.0628571 C25.7211429,14.0485714 22.994,10.6842857 20.7268571,8.10571429 C22.2511429,7.30857143 23.8468571,6.63 25.5082857,6.09571429 C25.5268571,6.25857143 25.5511429,6.41285714 25.5811429,6.55571429 C25.8854286,8.03285714 26.8011429,9.32857143 28.1568571,10.2057143 C29.4754286,11.0571429 29.5582857,11.1385714 31.6854286,13.1928571 L32.0568571,13.5514286 C34.0597143,15.4885714 36.494,15.9614286 38.4482857,16.3414286 C39.4125714,16.5271429 40.3225714,16.7042857 40.8697143,17.0085714 C41.8282857,17.5414286 42.894,17.7628571 43.9597143,17.7628571 C46.3568571,17.7628571 48.7582857,16.6442857 49.9625714,15.4414286 C50.674,14.73 52.5397143,12.71 53.8325714,11.3028571 C58.5825714,15.0914286 62.1882857,20.2514286 64.0197143,26.1914286 C61.6511429,26.4057143 58.4725714,27.0185714 56.7382857,28.7542857 C55.1868571,30.3057143 54.6725714,30.3057143 53.8954286,30.3057143 C52.3697143,30.3057143 49.1668571,31.8271429 47.8682857,33.9285714 C47.0954286,35.1785714 47.0082857,36.54 47.6197143,37.7642857 C48.0797143,38.6814286 48.5354286,39.42 48.9025714,40.0128571 C49.1025714,40.3385714 49.3397143,40.7214286 49.4725714,40.96 C49.4497143,40.9842857 49.4254286,41.01 49.4025714,41.0371429 C48.8368571,41.6714286 47.984,42.63 47.3454286,44.4142857 C46.404,47.0542857 47.8182857,48.5657143 48.6654286,49.47 C49.2311429,50.0742857 49.6782857,50.5528571 49.9111429,51.4871429 C50.6625714,54.5 50.4897143,55.7014286 49.1111429,57.0814286 C46.8268571,59.3671429 46.1797143,61.0157143 45.7825714,63.65 C42.3754286,64.9642857 38.6925714,65.7142857 34.8282857,65.7142857 C20.4754286,65.7142857 8.43542857,55.7485714 5.18257143,42.3842857 M17.034,10.3971429 C17.054,10.42 17.0697143,10.44 17.0897143,10.4614286 C17.9211429,11.4014286 20.4497143,14.2585714 20.3811429,15.15 C20.2525714,15.4057143 20.104,15.6828571 19.9482857,15.9714286 C19.1611429,17.4342857 18.1811429,19.2542857 18.2168571,21.1571429 C18.264,23.7385714 19.5811429,24.6714286 20.3625714,24.9971429 C22.1468571,25.7442857 24.014,24.69 25.1797143,23.7771429 C25.284,23.8957143 25.4211429,24.0814286 25.5768571,24.3714286 C26.0625714,25.2771429 26.0882857,26.1328571 26.1197143,27.2157143 C26.1554286,28.4185714 26.1954286,29.78 26.9182857,31.2271429 C27.4925714,32.3757143 26.0625714,34.4371429 24.914,36.0928571 C24.8082857,36.2457143 24.7025714,36.3971429 24.5997143,36.5457143 C23.0797143,36.3085714 21.8368571,36.5771429 20.884,37.3485714 C20.0711429,38.0085714 19.1654286,39.3171429 19.4711429,41.8171429 L19.9925714,46.0857143 C20.044,46.5071429 20.114,46.9371429 20.1854286,47.3585714 C20.2554286,47.7842857 20.3497143,48.3571429 20.3811429,48.7785714 C20.1782857,48.76 19.8982857,48.72 19.5225714,48.6342857 C17.7325714,48.23 16.3397143,46.66 14.864,44.9985714 C14.5497143,44.6442857 14.2368571,44.2928571 13.834,43.8571429 C11.564,41.4114286 8.56971429,38.19 4.42257143,37.89 C4.344,36.9942857 4.28542857,36.09 4.28542857,35.1714286 C4.28542857,24.9728571 9.32971429,15.9485714 17.034,10.3971429 M50.2582857,8.85857143 C49.0368571,10.1871429 47.5182857,11.8228571 46.9325714,12.4114286 C46.3597143,12.9814286 44.094,13.8957143 42.9511429,13.2614286 C41.8068571,12.6271429 40.5154286,12.3757143 39.2654286,12.1328571 C37.6511429,11.8185714 36.1254286,11.5228571 35.034,10.4685714 L34.6625714,10.1114286 C32.4382857,7.96142857 32.1525714,7.68571429 30.484,6.60571429 C30.2611429,6.46142857 29.874,6.15142857 29.7782857,5.68857143 C29.7368571,5.48714286 29.7682857,5.27714286 29.8254286,5.07571429 C31.4568571,4.80428571 33.1211429,4.62857143 34.8282857,4.62857143 C40.4611429,4.62857143 45.724,6.18857143 50.2582857,8.85857143 M34.8282857,0.342857143 C15.624,0.342857143 -0.000285714286,15.9671429 -0.000285714286,35.1714286 C-0.000285714286,54.3771429 15.624,70 34.8282857,70 C54.0325714,70 69.6568571,54.3771429 69.6568571,35.1714286 C69.6568571,15.9671429 54.0325714,0.342857143 34.8282857,0.342857143" id="Fill-1" fill="#FFFFFF" mask="url(#mask-2)"></path>
                </g>
                <path d="M38.2414679,58.4284197 C37.5202304,58.9233247 35.5677896,58.8072877 34.4021533,58.7373858 L33.9679538,58.7122212 C33.7523111,58.6996389 33.4565309,58.6940467 33.1126682,58.6898526 C32.6930391,58.6856585 31.7328462,58.6730762 31.1296294,58.5989802 C31.1689696,57.9516892 31.5448873,56.7326011 31.7852998,55.9538946 C32.4555407,53.7841415 33.1490943,51.5388944 32.1612175,49.6389624 C31.8989494,49.1356692 31.5856846,48.6589387 31.2665917,48.1836062 C30.9343853,47.6873031 30.6211206,47.2203588 30.4564744,46.7925596 C30.3705088,46.5674756 30.3617665,46.3381976 30.3807081,46.1928018 C30.4899865,46.1941998 30.667746,46.2081802 30.9474987,46.2599075 C34.5056036,46.9295672 39.7247401,49.4893725 39.6271181,52.8572431 C39.5440665,55.7148303 38.7514338,58.0635321 38.2414679,58.4284197 M31.789671,42.1454853 C31.243279,42.0406325 29.574962,41.7288703 28.0960609,42.553712 C27.9343289,42.6431864 27.7813391,42.742447 27.6400057,42.8500958 C26.108651,44.0020781 25.5797436,46.2151704 26.3519776,48.2353335 C26.6827269,49.0993203 27.1650089,49.8193092 27.5904662,50.4540179 C27.8221364,50.799333 28.0581778,51.141852 28.2461366,51.5039435 C28.4486659,51.9960525 27.8935316,53.7967238 27.5948373,54.7627673 C26.8532012,57.1631964 25.9294345,60.149403 28.225738,61.9318999 C29.3112368,62.770722 30.9824678,62.8587983 33.0543864,62.885361 C33.3210257,62.886759 33.5512388,62.8895551 33.717342,62.8979433 L34.1282288,62.923108 C34.7285315,62.9594569 35.3958583,63 36.0908689,63 C37.6805054,63 39.4100183,62.7888964 40.7912973,61.8354354 C43.5829963,59.9131348 43.9501717,54.5670421 43.9967971,52.9746782 C44.1760137,46.7492204 36.7946218,43.086364 31.789671,42.1454853" id="Fill-4" fill="#FFFFFF"></path>
            </g>
        </g>
    </g>
</svg>