<?xml version="1.0" encoding="utf-8"?>
<!-- Generator: Adobe Illustrator 25.0.0, SVG Export Plug-In . SVG Version: 6.00 Build 0)  -->
<svg version="1.1" id="Layer_1" xmlns="http://www.w3.org/2000/svg" xmlns:xlink="http://www.w3.org/1999/xlink" x="0px" y="0px"
	 viewBox="0 0 70 70" style="enable-background:new 0 0 70 70;" xml:space="preserve">
<style type="text/css">
	.st0{filter:url(#Adobe_OpacityMaskFilter);}
	.st1{fill-rule:evenodd;clip-rule:evenodd;fill:#FFFFFF;}
	.st2{mask:url(#mask-2_1_);}
</style>
<g id="Page-1">
	<g id="Apple-TV-Copy" transform="translate(-793.000000, -1960.000000)">
		<g id="Group-6" transform="translate(793.000000, 1960.000000)">
			<g id="Group-3">
				<g id="Clip-2">
				</g>
				<defs>
					<filter id="Adobe_OpacityMaskFilter" filterUnits="userSpaceOnUse" x="0" y="0.3" width="69.7" height="69.7">
						<feColorMatrix  type="matrix" values="1 0 0 0 0  0 1 0 0 0  0 0 1 0 0  0 0 0 1 0"/>
					</filter>
				</defs>
				<mask maskUnits="userSpaceOnUse" x="0" y="0.3" width="69.7" height="69.7" id="mask-2_1_">
					<g class="st0">
						<polygon id="path-1_1_" class="st1" points="0,0.3 69.7,0.3 69.7,70 0,70 						"/>
					</g>
				</mask>
				<path id="Fill-1" class="st2" d="M51.6,60.7c0.2-0.2,0.3-0.4,0.5-0.5c3.2-3.2,2.7-6.7,1.9-9.7c-0.5-2-1.6-3.2-2.3-3.9
					c-0.2-0.2-0.4-0.5-0.5-0.5c0,0,0-0.1,0.1-0.2c0.4-1,0.8-1.5,1.2-2c0.5-0.6,1.3-1.4,1.3-2.7c0-1.3-0.6-2.3-1.3-3.4
					c-0.3-0.5-0.6-1-1-1.7c0.4-0.5,1.8-1.4,2.3-1.5c1.6,0,3.3-0.2,5.9-2.8c0.8-0.8,3.1-1.2,5.2-1.4c0.2,1.6,0.4,3.1,0.4,4.8
					C65.4,45.8,59.9,55.2,51.6,60.7 M5.2,42.4c2,0.6,3.8,2.6,5.6,4.5c0.3,0.3,0.6,0.6,0.9,1c1.8,2,3.8,4.3,6.9,5
					c0.6,0.1,1.3,0.3,2.1,0.3c1,0,2.1-0.2,2.9-1c1.5-1.5,1.2-3.6,0.9-5.4c-0.1-0.4-0.1-0.7-0.2-1.1l-0.5-4.3c0-0.2,0-0.4,0-0.5
					c0.2,0,0.6,0.1,1.2,0.3c1,0.3,2-0.1,2.5-0.9c0.3-0.5,0.6-1,1-1.5c1.7-2.5,4-5.8,2.3-9.2c-0.3-0.6-0.3-1.3-0.3-2.2
					c0-1.3-0.1-3-1.1-4.7c-1.8-3.4-4.6-3.3-5.8-2.7c-0.2,0.1-0.4,0.2-0.6,0.4c-0.1,0.1-0.2,0.2-0.4,0.3c0.2-0.7,0.7-1.6,1.1-2.3
					c0.2-0.3,0.3-0.6,0.5-0.9c1.5-3-1.2-6.4-3.5-9c1.5-0.8,3.1-1.5,4.8-2c0,0.2,0,0.3,0.1,0.5c0.3,1.5,1.2,2.8,2.6,3.7
					c1.3,0.9,1.4,0.9,3.5,3l0.4,0.4c2,1.9,4.4,2.4,6.4,2.8c1,0.2,1.9,0.4,2.4,0.7c1,0.5,2,0.8,3.1,0.8c2.4,0,4.8-1.1,6-2.3
					c0.7-0.7,2.6-2.7,3.9-4.1c4.8,3.8,8.4,8.9,10.2,14.9c-2.4,0.2-5.5,0.8-7.3,2.6c-1.6,1.6-2.1,1.6-2.8,1.6c-1.5,0-4.7,1.5-6,3.6
					c-0.8,1.2-0.9,2.6-0.2,3.8c0.5,0.9,0.9,1.7,1.3,2.2c0.2,0.3,0.4,0.7,0.6,0.9c0,0,0,0-0.1,0.1c-0.6,0.6-1.4,1.6-2.1,3.4
					c-0.9,2.6,0.5,4.2,1.3,5.1c0.6,0.6,1,1.1,1.2,2c0.8,3,0.6,4.2-0.8,5.6c-2.3,2.3-2.9,3.9-3.3,6.6c-3.4,1.3-7.1,2.1-11,2.1
					C20.5,65.7,8.4,55.7,5.2,42.4 M17,10.4C17.1,10.4,17.1,10.4,17,10.4c0.9,1,3.4,3.9,3.3,4.8c-0.1,0.3-0.3,0.5-0.4,0.8
					c-0.8,1.5-1.8,3.3-1.7,5.2c0,2.6,1.4,3.5,2.1,3.8c1.8,0.7,3.7-0.3,4.8-1.2c0.1,0.1,0.2,0.3,0.4,0.6c0.5,0.9,0.5,1.8,0.5,2.8
					c0,1.2,0.1,2.6,0.8,4c0.6,1.1-0.9,3.2-2,4.9c-0.1,0.2-0.2,0.3-0.3,0.5c-1.5-0.2-2.8,0-3.7,0.8c-0.8,0.7-1.7,2-1.4,4.5l0.5,4.3
					c0.1,0.4,0.1,0.9,0.2,1.3c0.1,0.4,0.2,1,0.2,1.4c-0.2,0-0.5-0.1-0.9-0.1c-1.8-0.4-3.2-2-4.7-3.6c-0.3-0.4-0.6-0.7-1-1.1
					c-2.3-2.4-5.3-5.7-9.4-6c-0.1-0.9-0.1-1.8-0.1-2.7C4.3,25,9.3,15.9,17,10.4 M50.3,8.9c-1.2,1.3-2.7,3-3.3,3.6
					c-0.6,0.6-2.8,1.5-4,0.9c-1.1-0.6-2.4-0.9-3.7-1.1c-1.6-0.3-3.1-0.6-4.2-1.7l-0.4-0.4c-2.2-2.1-2.5-2.4-4.2-3.5
					c-0.2-0.1-0.6-0.5-0.7-0.9c0-0.2,0-0.4,0-0.6c1.6-0.3,3.3-0.4,5-0.4C40.5,4.6,45.7,6.2,50.3,8.9 M34.8,0.3C15.6,0.3,0,16,0,35.2
					C0,54.4,15.6,70,34.8,70s34.8-15.6,34.8-34.8C69.7,16,54,0.3,34.8,0.3"/>
			</g>
			<path id="Fill-4" d="M38.2,58.4c-0.7,0.5-2.7,0.4-3.8,0.3l-0.4,0c-0.2,0-0.5,0-0.9,0c-0.4,0-1.4,0-2-0.1c0-0.6,0.4-1.9,0.7-2.6
				c0.7-2.2,1.4-4.4,0.4-6.3c-0.3-0.5-0.6-1-0.9-1.5c-0.3-0.5-0.6-1-0.8-1.4c-0.1-0.2-0.1-0.5-0.1-0.6c0.1,0,0.3,0,0.6,0.1
				c3.6,0.7,8.8,3.2,8.7,6.6C39.5,55.7,38.8,58.1,38.2,58.4 M31.8,42.1c-0.5-0.1-2.2-0.4-3.7,0.4c-0.2,0.1-0.3,0.2-0.5,0.3
				c-1.5,1.2-2.1,3.4-1.3,5.4c0.3,0.9,0.8,1.6,1.2,2.2c0.2,0.3,0.5,0.7,0.7,1c0.2,0.5-0.4,2.3-0.7,3.3c-0.7,2.4-1.7,5.4,0.6,7.2
				c1.1,0.8,2.8,0.9,4.8,1c0.3,0,0.5,0,0.7,0l0.4,0c0.6,0,1.3,0.1,2,0.1c1.6,0,3.3-0.2,4.7-1.2c2.8-1.9,3.2-7.3,3.2-8.9
				C44.2,46.7,36.8,43.1,31.8,42.1"/>
		</g>
	</g>
</g>
</svg>
