<?xml version="1.0" encoding="utf-8"?>
<!-- Generator: Adobe Illustrator 25.0.0, SVG Export Plug-In . SVG Version: 6.00 Build 0)  -->
<svg version="1.1" id="Layer_1" xmlns="http://www.w3.org/2000/svg" xmlns:xlink="http://www.w3.org/1999/xlink" x="0px" y="0px"
	 viewBox="0 0 77 79" style="enable-background:new 0 0 77 79;" xml:space="preserve">
<style type="text/css">
	.st0{filter:url(#Adobe_OpacityMaskFilter);}
	.st1{fill-rule:evenodd;clip-rule:evenodd;fill:#FFFFFF;}
	.st2{mask:url(#mask-2_1_);fill-rule:evenodd;clip-rule:evenodd;}
	.st3{fill-rule:evenodd;clip-rule:evenodd;}
</style>
<g id="Page-1">
	<g id="Apple-TV-Copy" transform="translate(-1261.000000, -1960.000000)">
		<g id="Group-6" transform="translate(1261.000000, 1960.000000)">
			<g id="Group-3">
				<g id="Clip-2">
				</g>
				<defs>
					<filter id="Adobe_OpacityMaskFilter" filterUnits="userSpaceOnUse" x="0" y="0.1" width="76.6" height="78.4">
						<feColorMatrix  type="matrix" values="1 0 0 0 0  0 1 0 0 0  0 0 1 0 0  0 0 0 1 0"/>
					</filter>
				</defs>
				<mask maskUnits="userSpaceOnUse" x="0" y="0.1" width="76.6" height="78.4" id="mask-2_1_">
					<g class="st0">
						<polygon id="path-1_1_" class="st1" points="0,0.1 76.6,0.1 76.6,78.5 0,78.5 						"/>
					</g>
				</mask>
				<path id="Fill-1" class="st2" d="M68.4,56.8c-1-0.4-2-0.6-3.2-0.6c-5,0-9.1,4.1-9.1,9.1c0,1.4,0.3,2.6,0.8,3.8
					C51.9,72.3,46.1,74,40,74c-6,0-11.9-1.7-16.9-4.9c0.9-1.7,1.4-3.6,1.4-5.7c0-6.7-5.5-12.2-12.2-12.2c-1,0-1.9,0.1-2.8,0.3
					c-1-3.1-1.5-6.3-1.5-9.6c0-14.6,9.9-27.3,23.9-31c1.2,2.8,4,4.8,7.3,4.8c3.4,0,6.3-2.2,7.4-5.2c14.7,3,25.6,16.1,25.6,31.4
					C72.1,47.1,70.8,52.2,68.4,56.8 M65.3,69.9c-2.5,0-4.6-2.1-4.6-4.6c0-2.5,2.1-4.6,4.6-4.6s4.6,2.1,4.6,4.6
					C69.9,67.9,67.8,69.9,65.3,69.9 M12.2,71.2c-4.3,0-7.7-3.5-7.7-7.7c0-4.3,3.5-7.7,7.7-7.7s7.7,3.5,7.7,7.7
					C20,67.7,16.5,71.2,12.2,71.2 M39.1,4.6c1.9,0,3.4,1.5,3.4,3.4s-1.5,3.4-3.4,3.4c-1.9,0-3.4-1.5-3.4-3.4S37.2,4.6,39.1,4.6
					 M76.6,41.9C76.6,24.3,63.8,9.2,46.7,6c-0.9-3.4-3.9-6-7.6-6c-3.8,0-7,2.7-7.7,6.4C15.1,10.4,3.4,25.1,3.4,41.9
					c0,3.9,0.7,7.8,1.9,11.5C2.1,55.6,0,59.3,0,63.5c0,6.7,5.5,12.2,12.2,12.2c3.1,0,5.9-1.1,8-3c5.9,3.8,12.7,5.8,19.8,5.8
					c7.1,0,14-2,19.9-5.9c1.5,1.1,3.4,1.8,5.4,1.8c5,0,9.1-4.1,9.1-9.1c0-2.3-0.9-4.4-2.2-6C75,54,76.6,48,76.6,41.9"/>
			</g>
			<path id="Fill-4" class="st3" d="M40,49.6c-4.2,0-7.6-3.4-7.6-7.6s3.4-7.6,7.6-7.6s7.6,3.4,7.6,7.6S44.2,49.6,40,49.6 M40,30
				c-6.6,0-12,5.4-12,12s5.4,12,12,12c6.6,0,12-5.4,12-12S46.6,30,40,30"/>
		</g>
	</g>
</g>
</svg>
