<?xml version="1.0" encoding="UTF-8"?>
<svg width="86px" height="69px" viewBox="0 0 86 69" version="1.1" xmlns="http://www.w3.org/2000/svg" xmlns:xlink="http://www.w3.org/1999/xlink">
    <title>Group 3</title>
    <defs>
        <polygon id="path-1" points="0 0 86 0 86 69 0 69"></polygon>
    </defs>
    <g id="Page-1" stroke="none" stroke-width="1" fill="none" fill-rule="evenodd">
        <g id="Apple-TV-Copy" transform="translate(-343.000000, -1961.000000)">
            <g id="Group-3" transform="translate(343.000000, 1961.000000)">
                <mask id="mask-2" fill="white">
                    <use xlink:href="#path-1"></use>
                </mask>
                <g id="Clip-2"></g>
                <path d="M59.9455604,64.618213 L61.4666349,64.618213 C62.3933338,63.7958976 62.6993055,62.7983108 62.4841005,61.3902966 C61.9131486,57.6497111 63.6201484,54.8234584 65.1251192,52.3302216 C65.4149871,51.8511463 65.704855,51.3720709 65.9742272,50.8886137 L66.3899973,50.1583159 C67.6958668,47.8724836 68.3444096,46.595923 67.6358437,44.7818632 C67.0224363,43.2175653 67.5260452,42.098749 67.8788642,41.5714739 C68.3766172,40.8294913 69.4409301,39.9370674 71.6866744,39.8917889 C72.0058219,39.8844859 72.3381452,39.9107767 72.6675405,39.9443704 C72.8212583,39.9575157 72.9705842,39.9896488 73.1199101,39.9779641 C73.3351151,39.8947101 73.5678878,39.8099956 73.8065164,39.7223598 C74.1710473,39.5894456 74.7639589,39.3732774 75.1548413,39.1877818 C75.0904263,38.2997396 74.4126038,37.4102369 73.7991965,36.7807201 C72.4010963,35.3449546 72.2049231,33.1745094 72.0468133,31.427637 L71.995574,30.8828348 C71.8799197,29.7362672 72.3352172,28.7445228 72.6660765,28.0186067 C72.7597712,27.8170445 72.8549299,27.6154823 72.9252009,27.4139201 C73.1667575,26.7215978 73.7421013,26.1928621 74.4550592,26.0117483 C75.1694811,25.8291738 75.9248945,26.0146695 76.4724227,26.5098114 C77.1297494,27.1042738 77.5352717,27.2211215 77.6772777,27.2240427 C77.8397794,27.2050549 78.2833651,26.9421477 78.9084843,26.0672509 C79.6243701,25.0638217 80.4764061,24.2765606 81.2991625,23.5141297 C81.403105,23.4206516 81.5055835,23.3257128 81.6080621,23.2293135 L81.6080621,22.5209246 L81.4353125,20.2336318 C81.2859867,18.3100273 81.1366608,16.3864228 81.0415021,14.4584365 L81.0253983,14.1137359 C80.9668392,12.7305519 80.905352,12.6998793 80.5056857,12.5041595 C78.3155727,11.4306217 78.8499251,7.90474376 78.8733488,7.75430241 C79.1192973,6.21191338 79.0870897,5.1924176 78.7284148,4.38178701 L77.7709724,4.38178701 C77.1970925,4.66514257 76.9716397,5.03175208 76.8662331,5.76497111 C76.6993395,6.92906585 76.027373,8.04203975 74.7507831,9.26747952 C71.3089677,12.5728075 67.7734577,15.8971233 64.2394117,19.1469486 L62.9921013,20.3037404 C61.0977121,22.06814 59.1374438,23.892424 56.9692905,25.4684067 C55.2476508,26.7201372 54.2082255,27.7542389 53.9944845,29.336064 C53.8627264,30.3058995 53.1014572,31.0712517 52.1293749,31.2114689 C50.3374643,31.4670731 49.1940964,32.2733219 48.4196514,33.8259351 C47.949714,34.7694799 46.8356258,35.4720264 45.7713128,35.4968565 C44.841686,35.5129231 44.2136388,36.1015432 43.8988833,37.2451896 C43.2342367,39.64933 41.6955944,40.8689274 39.32102,40.8689274 L39.2902765,40.8689274 C38.2201076,40.863085 37.201178,40.7360132 36.2159199,40.6133232 C35.7679423,40.5563599 35.3214286,40.4993967 34.8734509,40.4570394 L33.0859322,40.2832286 C31.2793817,40.1050359 29.4742952,39.9253826 27.6662808,39.8070744 C27.1055767,39.7676383 26.5068092,39.7924684 25.8714422,39.8187591 C25.1892278,39.8450499 24.5084775,39.8713406 23.8262631,39.8348257 C20.934904,39.7019115 19.9189024,39.9399886 17.4213537,41.3684511 C16.1345159,42.1002096 14.354317,42.2024513 12.5316628,41.6488855 C10.6021381,41.0602654 9.03568024,39.8684194 8.33882609,38.4589446 C8.01235871,37.7972947 7.57170094,37.1371055 7.10615552,36.4360196 C6.91876617,36.1555852 6.7328408,35.8751508 6.55130737,35.5917953 C6.24533569,35.1171017 5.78564619,34.816219 5.25568569,34.7446498 C4.96288983,34.7037531 4.67009397,34.7358862 4.3919379,34.8322855 L4.3919379,38.9131898 C5.42697127,40.2262653 6.4854283,41.5247349 7.54242135,42.8217438 C10.3459417,46.2629072 13.2446207,49.8209183 15.7114258,53.6374548 C18.5032344,57.9549756 21.8762427,59.9019496 27.3500613,60.3561948 C34.8192837,60.9798692 42.3470652,62.0285769 49.6259703,63.0422303 C52.5729606,63.4526576 55.519951,63.863085 58.4698693,64.2472217 C58.9969018,64.3144091 59.4624472,64.4648504 59.8372259,64.5846193 C59.8738254,64.5948435 59.9104249,64.6065282 59.9455604,64.618213 L59.9455604,64.618213 Z M62.2147283,69 L59.623485,69 C59.4243838,69 59.2282105,68.9737093 59.0364293,68.9196672 C58.8563598,68.870007 58.6777543,68.8130438 58.4991488,68.7560805 C58.3015116,68.6932749 58.1068024,68.6187845 57.9047733,68.5924938 C54.9387512,68.205436 51.980049,67.793548 49.0198829,67.38166 C41.798073,66.3753096 34.3317786,65.3353655 26.9840665,64.7233759 C20.1648509,64.1552042 15.5503881,61.4691687 12.022198,56.0123833 C9.68422307,52.3988696 6.86313496,48.9357973 4.13427754,45.5866514 C2.90014299,44.0705531 1.66454446,42.5544548 0.464081438,41.0164476 C0.162501702,40.6308503 0,40.1576173 0,39.6697784 L0,33.6375183 C0,33.0153045 0.264980253,32.4223027 0.729061691,32.0074935 C2.14619365,30.7382359 4.00837532,30.1466946 5.84713332,30.4022989 C7.64929184,30.6462183 9.25381316,31.6759383 10.2507831,33.2300121 C10.4176767,33.4929193 10.5918902,33.7514447 10.7646398,34.0114307 C11.2872804,34.7957706 11.8260248,35.6064012 12.2783944,36.5207341 C12.3589133,36.6813996 12.8273866,37.1298025 13.7072382,37.4233822 C14.5241386,37.6935924 15.1009465,37.6322474 15.2400245,37.56506 C18.4812747,35.7115641 20.2863612,35.2763066 24.0400041,35.4588811 C24.5904603,35.4866324 25.1438445,35.4618022 25.6972287,35.4398933 C26.4218984,35.4106814 27.1685278,35.3829301 27.9561487,35.4340509 C29.8110105,35.556741 31.6658723,35.7393154 33.5178061,35.9233505 L35.290685,36.0957008 C35.7825821,36.1424398 36.2730151,36.2037848 36.7634482,36.2651299 C37.6594035,36.3775957 38.5055835,36.4827586 39.3107722,36.4871404 C39.4059308,36.5017464 39.4747378,36.4827586 39.5245131,36.4783768 C39.5596486,36.4068076 39.6094239,36.2811964 39.6635912,36.0810948 C40.4160765,33.3614657 42.3704889,31.5459453 44.8651096,31.1807963 C46.0567888,29.1753985 47.7784284,27.840414 50.000749,27.1948308 C50.7971538,24.8155204 52.5553929,23.2556042 54.383903,21.9279228 C56.3368514,20.5082238 58.1141223,18.8519083 59.9953357,17.1006541 L61.2616778,15.9263352 C64.7723001,12.6969582 68.2858505,9.39455134 71.7042421,6.10967168 C72.4157361,5.42757351 72.5240705,5.11062425 72.5284625,5.09747888 C72.8695697,2.6977202 74.2266785,1.0121928 76.5558695,0.140217184 C76.8018181,0.0467390614 77.0638704,0 77.3273866,0 L79.917166,0 C80.5671728,0 81.1849721,0.286276751 81.6022062,0.784339874 C83.6956966,3.27903728 83.5902901,6.05416905 83.2111194,8.44078237 C83.1847678,8.60290849 83.1833038,8.81907665 83.1935517,9.00749349 C85.2650824,10.4257319 85.3558491,12.5830317 85.4129443,13.9267797 L85.4275841,14.2422684 C85.5227427,16.129358 85.6676767,18.0120658 85.8140746,19.8962342 L85.9941441,22.2799263 C85.998536,22.3325078 86,22.3850892 86,22.4376707 L86,24.1611736 C86,24.7395694 85.7716192,25.2945958 85.361705,25.7050232 C85.013278,26.0555661 84.6487471,26.3929637 84.2842163,26.7303613 C83.593218,27.3686416 82.9388193,27.9718677 82.4864497,28.6086874 C81.1835081,30.4329714 79.7649122,31.4042675 78.151607,31.579539 C77.5894389,31.6379628 77.0243429,31.5985267 76.4592469,31.4524671 C76.5397658,32.2718613 76.6846997,33.4388772 76.9511439,33.7295358 C79.6185142,36.4725345 79.7649122,38.9789166 79.4179491,40.6016384 C79.0138908,42.4858068 77.0506945,43.2044199 75.317343,43.8383184 C75.0757865,43.9244936 74.8444777,44.0106687 74.6351287,44.0924621 C73.7450293,44.4459262 72.8856734,44.3626723 72.2605543,44.3071696 C72.2005311,44.3013272 72.139044,44.2940243 72.0790208,44.2881819 C72.9032412,47.6095764 71.4202302,50.2035943 70.2036634,52.328761 L69.8113169,53.022544 C69.5170571,53.5483584 69.2037655,54.0683305 68.887546,54.5912237 C67.6036361,56.717851 66.4939398,58.5552804 66.8262631,60.7315679 C67.329872,64.0325141 66.1660084,66.7579856 63.4591107,68.6144027 C63.0931159,68.8656252 62.658314,69 62.2147283,69 L62.2147283,69 Z" id="Fill-1" fill="#FFFFFF" mask="url(#mask-2)"></path>
            </g>
        </g>
    </g>
</svg>