<?xml version="1.0" encoding="UTF-8"?>
<svg width="25px" height="26px" viewBox="0 0 25 26" version="1.1" xmlns="http://www.w3.org/2000/svg" xmlns:xlink="http://www.w3.org/1999/xlink">
    <title>linkedin</title>
    <g id="Page-1" stroke="none" stroke-width="1" fill="none" fill-rule="evenodd">
        <g id="Apple-TV-Copy" transform="translate(-1338.000000, -5821.000000)" fill="#FFFFFF" fill-rule="nonzero">
            <g id="linkedin" transform="translate(1338.000000, 5821.000000)">
                <path d="M5.24424705,25.9999995 L0.156949351,25.9999995 L0.156949351,8.80516541 L5.24424705,8.80516541 L5.24424705,25.9999995 Z M5.24424705,2.71035275 C5.24424705,4.21569167 4.23225763,5.42116968 2.6067652,5.42116968 L2.57646362,5.42116968 C1.01198942,5.42116968 0,4.21569167 0,2.71035275 C0,1.1715928 1.04229099,0 2.63748185,0 C4.23225763,0 5.21394548,1.1715928 5.24424705,2.71035275 Z M13.5438882,26 L8.43061799,26 C8.43061799,26 8.50416291,10.3475224 8.43061799,8.70140086 L13.5433912,8.70140086 L13.5066188,11.0011381 C14.2405772,9.80405312 15.562398,8.04528301 18.5737643,8.04528301 C22.2465379,8.04528301 25,10.5526206 25,15.9410603 L25,26 L19.8783681,26 L19.8783681,16.2032144 C19.8783681,13.8453828 18.6115306,12.6477788 16.59153,12.6477788 C15.0495713,12.6477788 14.1312536,13.7327343 13.7277505,14.7808326 C13.5801637,15.1545972 13.5438882,15.6789058 13.5438882,16.2032146 L13.5438882,26 Z" id="Shape"></path>
            </g>
        </g>
    </g>
</svg>