<?xml version="1.0" encoding="UTF-8"?>
<svg width="27px" height="27px" viewBox="0 0 27 27" version="1.1" xmlns="http://www.w3.org/2000/svg" xmlns:xlink="http://www.w3.org/1999/xlink">
    <title>rect3687</title>
    <g id="Page-1" stroke="none" stroke-width="1" fill="none" fill-rule="evenodd">
        <g id="Apple-TV-Copy" transform="translate(-1207.000000, -5825.000000)" fill="#FFFFFF" fill-rule="nonzero">
            <g id="icon-instagram" transform="translate(1207.000000, 5825.000000)">
                <path d="M7.81853282,0.0522243714 C3.49227799,0.0522243714 0,3.55125725 0,7.88588008 L0,19.1663443 C0,23.5009671 3.49227799,27 7.81853282,27 L19.1814672,27 C23.507722,27 27,23.5009671 27,19.1663443 L27,7.83365571 C27,3.49903288 23.507722,0 19.1814672,0 L7.81853282,0 L7.81853282,0.0522243714 Z M7.81853282,2.35009671 L19.1814672,2.35009671 C22.2567568,2.35009671 24.6544402,4.80464217 24.6544402,7.83365571 L24.6544402,19.1141199 C24.6544402,22.1953578 22.2046332,24.5976789 19.1814672,24.5976789 L7.81853282,24.5976789 C4.74324324,24.5976789 2.34555985,22.1431335 2.34555985,19.1141199 L2.34555985,7.83365571 C2.34555985,4.80464217 4.7953668,2.35009671 7.81853282,2.35009671 Z M20.7451737,4.64796905 C19.8590734,4.64796905 19.1293436,5.37911025 19.1293436,6.26692456 C19.1293436,7.15473888 19.8590734,7.88588008 20.7451737,7.88588008 C21.6312741,7.88588008 22.3610039,7.15473888 22.3610039,6.26692456 C22.3610039,5.37911025 21.6312741,4.64796905 20.7451737,4.64796905 Z M13.5,6.58027079 C9.69498069,6.58027079 6.56756757,9.71373308 6.56756757,13.5261122 C6.56756757,17.3384913 9.69498069,20.4719536 13.5,20.4719536 C17.3050193,20.4719536 20.4324324,17.3384913 20.4324324,13.5261122 C20.4324324,9.71373308 17.3050193,6.58027079 13.5,6.58027079 Z M13.5,8.87814313 C16.0540541,8.87814313 18.0868726,10.9148936 18.0868726,13.4738878 C18.0868726,16.032882 16.0540541,18.0696325 13.5,18.0696325 C10.9459459,18.0696325 8.91312741,16.032882 8.91312741,13.4738878 C8.91312741,10.9148936 10.9459459,8.87814313 13.5,8.87814313 Z" id="rect3687"></path>
            </g>
        </g>
    </g>
</svg>