<?xml version="1.0" encoding="UTF-8"?>
<svg width="27px" height="22px" viewBox="0 0 27 22" version="1.1" xmlns="http://www.w3.org/2000/svg" xmlns:xlink="http://www.w3.org/1999/xlink">
    <title>twitter</title>
    <g id="Page-1" stroke="none" stroke-width="1" fill="none" fill-rule="evenodd">
        <g id="Apple-TV-Copy" transform="translate(-1274.000000, -5828.000000)" fill="#FFFFFF" fill-rule="nonzero">
            <g id="twitter" transform="translate(1274.000000, 5828.000000)">
                <path d="M27,2.48257609 C26.0072946,2.90714601 24.9399376,3.19122188 23.8169892,3.31782091 C24.9621742,2.66321129 25.8421083,1.62262903 26.2518972,0.38751654 C25.1797753,0.992721657 23.9980587,1.43890604 22.7337491,1.67048963 C21.7283369,0.642258492 20.2893111,0 18.6962174,0 C15.6339196,0 13.1545385,2.36987208 13.1545385,5.30480814 C13.1545385,5.71548301 13.2006,6.11843844 13.2958998,6.50749889 C8.69133478,6.28672252 4.60932996,4.1731363 1.87581622,0.964931626 C1.40408259,1.75231583 1.1277134,2.66321129 1.1277134,3.63431848 C1.1277134,5.47309217 2.10453556,7.09880902 3.59438791,8.04521394 C2.68268722,8.01896782 1.83134302,7.78120862 1.08482852,7.38597267 C1.07688687,7.40604322 1.07688687,7.43074547 1.07688687,7.45544773 C1.07688687,10.0244817 2.99241132,12.1627702 5.52738395,12.6506396 C5.06200365,12.7710631 4.57438673,12.8374504 4.0692982,12.8374504 C3.70874757,12.8374504 3.50861816,12.7232025 3.17665745,12.6599029 C3.88028708,14.7673136 5.51785397,16.1660785 7.94164365,16.2123952 C6.05312077,17.6327746 4.18842285,18.5282311 1.58832872,18.5282311 C1.14200835,18.5282311 0.430437084,18.5760918 0,18.5282311 C2.4492029,20.0319806 5.35902112,21 8.49279368,21 C18.6787458,21 24.2521913,12.9223643 24.2521913,5.91618882 C24.2521913,5.68460519 24.250603,5.45765331 24.2378963,5.23224524 C25.3179599,4.48191442 26.2566621,3.54631672 27,2.48257609 L27,2.48257609 Z" id="Shape"></path>
            </g>
        </g>
    </g>
</svg>